<?xml version="1.0" encoding="UTF-8"?>
<svg version="1.1" xmlns="http://www.w3.org/2000/svg" width="440" height="336">
<path d="M0 0 C1.27967148 -0.00426498 2.55934296 -0.00852997 3.87779236 -0.01292419 C5.29924014 -0.01257465 6.7206879 -0.0121131 8.14213562 -0.0115509 C9.63708582 -0.01454279 11.13203524 -0.01794539 12.62698364 -0.02172852 C16.69373614 -0.03057671 20.7604676 -0.03290717 24.82722878 -0.0335443 C27.37233146 -0.03425516 29.91742879 -0.0363903 32.46253014 -0.03904152 C41.35508437 -0.04830261 50.2476236 -0.05237607 59.1401825 -0.05158997 C67.40436765 -0.05099124 75.66848708 -0.06150066 83.93265563 -0.07733363 C91.04200873 -0.09046421 98.15134053 -0.09577145 105.26070565 -0.09513456 C109.49993107 -0.09488088 113.73909829 -0.09765852 117.97831154 -0.10831261 C121.97643015 -0.11808496 125.9744361 -0.11801104 129.97255898 -0.11079597 C131.42927212 -0.10976088 132.88599262 -0.11204795 134.34269333 -0.11815643 C156.86521825 -0.20637568 178.70939699 4.09412257 195.80107117 19.72746277 C197.74589501 21.33970156 197.74589501 21.33970156 199.89482117 21.04386902 C202.24543256 19.96996224 204.08520712 18.64593459 206.13700867 17.07121277 C224.53876499 3.93868182 243.62204987 -0.02034489 265.96025085 -0.0115509 C267.48201581 -0.01454672 269.00378 -0.01795022 270.52554321 -0.02172852 C274.63884733 -0.03052436 278.75213062 -0.03290461 282.86544323 -0.0335443 C285.43645886 -0.03425669 288.00746925 -0.03639448 290.57848358 -0.03904152 C299.55030655 -0.04827648 308.5221147 -0.05237825 317.49394226 -0.05158997 C325.85556449 -0.05098792 334.21712248 -0.06156933 342.57872844 -0.07733363 C349.76445849 -0.09039821 356.95016748 -0.0957744 364.13590932 -0.09513456 C368.42504342 -0.09487948 372.71412023 -0.09773652 377.00324249 -0.10831261 C381.03176489 -0.11797672 385.06017495 -0.11808444 389.08870125 -0.11079597 C390.56735714 -0.10974841 392.04601997 -0.1121232 393.52466393 -0.11815643 C395.54156992 -0.12585385 397.55851404 -0.12004238 399.57542419 -0.11352539 C400.70436977 -0.11407016 401.83331535 -0.11461493 402.99647141 -0.1151762 C405.93393931 0.13775372 407.53459116 0.37055084 409.88700867 2.13371277 C411.54738421 5.58025133 412.13762491 8.34744341 412.14148426 12.15470123 C412.14731645 13.14737393 412.15314865 14.14004663 412.15915757 15.16280031 C412.15537825 16.24596387 412.15159893 17.32912744 412.14770508 18.44511414 C412.15153063 19.60150375 412.15535617 20.75789336 412.15929765 21.94932508 C412.16783065 25.15506808 412.16739409 28.3606648 412.16311705 31.56641173 C412.16065114 35.02522347 412.16966224 38.4840082 412.17715454 41.94281006 C412.18990675 48.71701025 412.19169463 55.49117081 412.18935428 62.26538098 C412.18757175 67.77056325 412.18931934 73.27573348 412.19357872 78.78091431 C412.19417391 79.56422047 412.1947691 80.34752664 412.19538232 81.15456936 C412.19659406 82.74580403 412.1978082 84.33703871 412.1990247 85.92827338 C412.20990198 100.85186686 412.20773669 115.77543774 412.20163985 130.69903249 C412.19646897 144.35590239 412.20773031 158.012701 412.22673807 171.6695568 C412.2461022 185.68980985 412.25437508 199.71002914 412.25061482 213.73029566 C412.24870081 221.60270185 412.25120992 229.47504733 412.26532936 237.34744263 C412.27722589 244.04826827 412.27866745 250.74899583 412.26653919 257.44982278 C412.26063865 260.86919067 412.25958331 264.288379 412.2715416 267.70773506 C412.28193917 271.41276204 412.27396425 275.11730237 412.26123047 278.8223114 C412.26860475 279.90547496 412.27597904 280.98863853 412.28357679 282.10462523 C412.21699665 291.27577425 412.21699665 291.27577425 408.88700867 295.13371277 C406.11916394 296.51763513 403.87906944 296.26478216 400.78038025 296.27174377 C399.47684097 296.27719711 398.1733017 296.28265045 396.83026123 296.28826904 C395.37684636 296.28938895 393.92343144 296.29043945 392.47001648 296.29142761 C390.94565687 296.296095 389.42129866 296.30123844 387.89694214 296.30682373 C384.60719686 296.31811871 381.31746072 296.32654654 378.02770233 296.33294296 C372.81489699 296.3436257 367.60215653 296.36387553 362.38938904 296.38606262 C347.56326807 296.44796391 332.73714941 296.50186246 317.91093445 296.53507996 C309.7275878 296.55349499 301.5443485 296.58252424 293.36108088 296.62308466 C289.03464643 296.64405487 284.70834675 296.65959751 280.38185883 296.66189194 C276.30076953 296.66405845 272.2199599 296.68012899 268.13895607 296.70628166 C266.65162263 296.71340297 265.16425503 296.71561105 263.67690849 296.71217918 C244.53897975 296.67511875 224.64175756 300.83599143 210.37528992 314.54777527 C208.87490796 316.11015648 207.39880892 317.69652237 205.95732117 319.31340027 C203.48882458 321.48381425 202.16977111 322.06343957 198.88700867 322.13371277 C195.06489793 320.36148213 192.33055807 317.79312099 189.32450867 314.88371277 C173.41005722 300.36236612 155.16072759 296.8085552 134.3054657 296.89421082 C132.76517647 296.89309566 131.22488768 296.89103431 129.68460083 296.8881073 C126.39005776 296.88341502 123.09558618 296.88447337 119.80104446 296.88988304 C114.58997265 296.8975357 109.37903655 296.88679165 104.16798401 296.87268066 C89.35784804 296.83505529 74.54777633 296.81678219 59.7375946 296.82829285 C51.54105489 296.83450602 43.34473661 296.8229539 35.14825141 296.79184753 C29.96861268 296.77319648 24.78960153 296.77650589 19.60997319 296.79601514 C16.39196233 296.80289234 13.17429286 296.78895086 9.95634651 296.76906586 C8.46521326 296.76401616 6.97402276 296.76750988 5.48293495 296.78019905 C3.44687123 296.796295 1.41062447 296.7787296 -0.62541199 296.75949097 C-1.76428801 296.75932323 -2.90316402 296.75915548 -4.07655144 296.75898266 C-8.34796697 295.87940407 -9.67100727 294.76526289 -12.11299133 291.13371277 C-12.83908178 287.33684575 -12.77869357 283.60215139 -12.73445129 279.74638367 C-12.74084012 278.58182695 -12.74722894 277.41727023 -12.75381136 276.21742392 C-12.7664321 272.98858286 -12.7566222 269.76070726 -12.73729658 266.53192782 C-12.72187282 263.04855781 -12.73527056 259.56528303 -12.74504089 256.08190918 C-12.75957191 249.2594834 -12.74732912 242.43735506 -12.72592765 235.61495745 C-12.70192314 227.67134022 -12.70363168 219.72779122 -12.70623356 211.78414577 C-12.70992434 197.61138104 -12.68909304 183.4387565 -12.65498352 169.26603699 C-12.62189177 155.51111813 -12.60772516 141.75634642 -12.6139679 128.00138855 C-12.62073111 113.02596738 -12.61827364 98.05060786 -12.59860849 83.07519579 C-12.59756901 82.28337991 -12.59652952 81.49156404 -12.59545854 80.67575374 C-12.59336763 79.08540037 -12.59125666 77.49504702 -12.58912537 75.90469369 C-12.58222817 70.36658218 -12.58156072 64.82848966 -12.58300781 59.29037476 C-12.58444716 52.54195094 -12.57476326 45.79364716 -12.55106145 39.04526317 C-12.53919699 35.60160659 -12.53207921 32.15811736 -12.53789902 28.7144413 C-12.5415991 24.98311516 -12.52691655 21.25230821 -12.50740051 17.52104187 C-12.5153924 15.88462368 -12.5153924 15.88462368 -12.52354574 14.21514654 C-12.43856391 4.83515608 -12.43856391 4.83515608 -9.11299133 1.13371277 C-5.84033355 0.04282684 -3.44526368 0.00517962 0 0 Z M2.88700867 15.13371277 C2.88700867 103.24371277 2.88700867 191.35371277 2.88700867 282.13371277 C52.05456581 282.26455173 52.05456581 282.26455173 101.22221375 282.34147644 C110.78483582 282.38237 110.78483582 282.38237 115.27767944 282.40783691 C118.38027606 282.4237518 121.48254526 282.42607596 124.58517456 282.41967773 C148.40994566 282.37988692 168.01094233 283.83610802 188.88700867 296.13371277 C190.2162528 296.80849589 191.5487722 297.47694388 192.88700867 298.13371277 C193.11598438 264.9097963 193.29214869 231.68607643 193.39766196 198.46154592 C193.41016877 194.53756965 193.42311202 190.61359493 193.43632507 186.68962097 C193.43894818 185.9084407 193.44157128 185.12726042 193.44427387 184.32240801 C193.48776682 171.67972049 193.56660062 159.03748849 193.65853663 146.39507104 C193.75210985 133.41912361 193.80760844 120.44341445 193.82789361 107.46714348 C193.84160355 99.46218615 193.88487273 91.45851635 193.96617334 83.45395546 C194.02537134 77.31201315 194.03154657 71.17104871 194.01808548 65.02886009 C194.02083557 62.51213281 194.04071511 59.99535659 194.07906342 57.47891998 C194.96856735 44.46731921 194.96856735 44.46731921 190.71435165 32.68168449 C188.19782989 30.36126354 185.90009104 28.73161634 182.88700867 27.13371277 C182.24159433 26.69707086 181.59618 26.26042894 180.93120766 25.81055546 C178.96184635 24.44899188 178.96184635 24.44899188 175.76200867 22.82121277 C174.08751648 21.89888855 174.08751648 21.89888855 172.37919617 20.95793152 C160.91140853 15.80895352 148.82343965 14.54272393 136.39286804 14.67961121 C134.89908643 14.68084092 133.40530249 14.68029515 131.91152191 14.67815018 C127.96536044 14.67725909 124.0196991 14.70018532 120.07365417 14.72859192 C116.35029283 14.75162892 112.62704388 14.75245815 108.90361023 14.7552948 C98.0646786 14.77615842 87.22583704 14.83200342 76.38700867 14.88371277 C52.13200867 14.96621277 27.87700867 15.04871277 2.88700867 15.13371277 Z M224.07450867 22.82121277 C222.93368835 23.42320496 221.79286804 24.02519714 220.61747742 24.64543152 C219.3713999 25.47096556 218.12818893 26.30083392 216.88700867 27.13371277 C216.0580842 27.57270873 215.22915974 28.01170469 214.37511635 28.46400356 C210.27335697 31.18508008 207.49229367 33.6515905 206.31579351 38.47612309 C205.36312035 46.01469002 205.63622748 53.62525854 205.75175476 61.20622253 C205.75457681 63.78879689 205.75298962 66.37137928 205.74732971 68.95394897 C205.74209973 74.50533003 205.77332693 80.05553089 205.8297081 85.60661507 C205.91116913 93.63221893 205.9370414 101.65725531 205.94958802 109.68322777 C205.97144502 122.70618972 206.03791328 135.72852337 206.13261414 148.75114441 C206.22448118 161.39727141 206.29522727 174.04322742 206.33769226 186.68962097 C206.3403195 187.4698493 206.34294673 188.25007763 206.34565358 189.05394924 C206.35870447 192.96833913 206.37134143 196.88273022 206.38377261 200.79712212 C206.48734846 233.24310965 206.6633985 265.68832697 206.88700867 298.13371277 C207.62088806 297.73104187 208.35476746 297.32837097 209.11088562 296.91349792 C210.57207825 296.11371521 210.57207825 296.11371521 212.06278992 295.29777527 C213.50392151 294.50814392 213.50392151 294.50814392 214.97416687 293.70256042 C229.75223426 285.74313866 243.94066399 282.52224379 260.65653992 282.58781433 C262.18036949 282.57898639 263.70418984 282.56843012 265.22799683 282.55631638 C269.25483307 282.52895611 273.28135766 282.52479497 277.30827332 282.5259552 C281.10740787 282.52338547 284.9062957 282.49920607 288.70536804 282.47697449 C299.76583425 282.42452582 310.82644083 282.40613408 321.88700867 282.38371277 C346.63700867 282.30121277 371.38700867 282.21871277 396.88700867 282.13371277 C396.88700867 194.02371277 396.88700867 105.91371277 396.88700867 15.13371277 C360.22607117 15.00996277 360.22607117 15.00996277 322.82450867 14.88371277 C315.13001404 14.84729675 307.43551941 14.81088074 299.50785828 14.77336121 C292.56255697 14.75997691 292.56255697 14.75997691 285.61724854 14.75193787 C282.54278833 14.74823696 279.4686092 14.73335126 276.39422607 14.71141052 C272.45483158 14.68367531 268.51583721 14.67580232 264.57635415 14.68142366 C263.14172493 14.68025078 261.70707959 14.67249696 260.2725352 14.65685225 C247.46433754 14.5238243 235.42614555 16.632949 224.07450867 22.82121277 Z " fill="#ffffff" transform="translate(22.112991333007813,10.866287231445313)"/>
<path d="M0 0 C2.49750293 2.201746 4.74714665 4.553121 7 7 C7.80566406 7.75796875 8.61132812 8.5159375 9.44140625 9.296875 C22.38507495 22.97171277 25.44569207 40.74989903 25.20703125 58.79296875 C24.76764468 73.89654505 17.9668268 87.79854376 8 99 C7.46890625 99.61230469 6.9378125 100.22460938 6.390625 100.85546875 C-5.39714942 113.56942544 -22.17808828 119.72761721 -39.09765625 121.28515625 C-57.93235074 121.86819525 -74.5092253 115.1854227 -88.44140625 102.8359375 C-101.27272451 90.5473992 -108.53505382 75.69561971 -110 58 C-110.07089844 57.17371094 -110.14179688 56.34742188 -110.21484375 55.49609375 C-110.94584309 37.74742974 -103.82197367 20.76401982 -92.5 7.4375 C-67.66095653 -18.93067377 -28.73951846 -20.77083379 0 0 Z M-85.8125 22.25 C-94.45867919 33.85999948 -96.16341924 47.97873765 -95 62 C-92.55759991 75.04939476 -85.3036266 88.2708556 -74.38720703 96.16650391 C-60.24506483 105.45465667 -45.96752255 108.28119768 -29.26953125 105.34375 C-16.01303172 101.66930808 -3.57728677 93.18144741 3.33203125 81.1171875 C6.88264036 74.48354564 10.39261265 67.59234187 11 60 C11.07992187 59.04222656 11.15984375 58.08445313 11.2421875 57.09765625 C11.84922701 42.36802108 7.25078088 28.9100942 -2.03125 17.50390625 C-12.52922105 6.2261946 -26.68970053 0.29902236 -42 -0.5 C-60.15366257 0.39078886 -74.21141853 8.56022057 -85.8125 22.25 Z " fill="#ffffff" transform="translate(366,103)"/>
<path d="M0 0 C0.92245514 -0.00571014 1.84491028 -0.01142029 2.7953186 -0.01730347 C3.80525879 -0.01842133 4.81519897 -0.01953918 5.85574341 -0.02069092 C7.45369247 -0.02813828 7.45369247 -0.02813828 9.08392334 -0.03573608 C12.61480348 -0.05036426 16.1456387 -0.05716048 19.67654419 -0.06268311 C22.12650555 -0.06843358 24.57646689 -0.07419133 27.02642822 -0.07995605 C32.16615001 -0.09046761 37.30585614 -0.09630942 42.44558716 -0.09979248 C49.03547484 -0.1052805 55.62515624 -0.12931466 62.21497917 -0.15776443 C67.27641406 -0.1763752 72.33779907 -0.18159557 77.39926529 -0.18312836 C79.8289719 -0.18615844 82.25867757 -0.19419886 84.68835068 -0.20731354 C88.08545449 -0.22434258 91.48205188 -0.22250133 94.87918091 -0.21600342 C95.88507263 -0.2252182 96.89096436 -0.23443298 97.92733765 -0.243927 C103.44269163 -0.21083141 107.39110983 0.03469504 111.49685669 4.14044189 C111.87185669 7.45294189 111.87185669 7.45294189 111.49685669 11.14044189 C109.35149971 13.69154375 107.58630328 14.96364424 104.25922966 15.50356865 C101.402505 15.65594456 98.57218185 15.66918588 95.7114563 15.64215088 C94.081399 15.65025536 94.081399 15.65025536 92.41841125 15.65852356 C88.82839682 15.67102515 85.23918199 15.65451044 81.64920044 15.63653564 C79.15486102 15.63669059 76.66052136 15.63817877 74.16618347 15.64094543 C68.27069629 15.64250735 62.37550178 15.62413316 56.48007828 15.59814364 C51.11041825 15.57632218 45.74102007 15.5799442 40.37133783 15.59038299 C34.55619416 15.60116735 28.74119068 15.5948682 22.92605782 15.58082771 C20.45367398 15.57630672 17.98127884 15.57598205 15.50889397 15.57989311 C12.05664646 15.582798 8.60503035 15.56633254 5.15286255 15.54449463 C4.12781616 15.54899628 3.10276978 15.55349792 2.04666138 15.55813599 C0.63567421 15.54327904 0.63567421 15.54327904 -0.80381775 15.52812195 C-1.619563 15.52569205 -2.43530825 15.52326216 -3.27577305 15.52075863 C-6.07440378 15.0429009 -7.4450982 14.07088182 -9.50314331 12.14044189 C-10.68579661 8.51363844 -10.81214399 6.83569343 -9.25314331 3.32794189 C-6.59591249 0.00640336 -4.00711743 0.01486414 0 0 Z " fill="#ffffff" transform="translate(63.503143310546875,106.85955810546875)"/>
<path d="M0 0 C0.9238298 -0.00708481 1.84765961 -0.01416962 2.79948425 -0.02146912 C3.80582916 -0.0189917 4.81217407 -0.01651428 5.84901428 -0.01396179 C6.91445969 -0.01907272 7.97990509 -0.02418365 9.07763672 -0.02944946 C12.6031301 -0.04336105 16.12842834 -0.04238752 19.65394592 -0.04008484 C22.10247877 -0.04397082 24.55101094 -0.04830528 26.99954224 -0.05307007 C32.13330775 -0.0605356 37.26700449 -0.0602385 42.40077209 -0.05497742 C48.98280294 -0.0491815 55.5645525 -0.06611542 62.14653683 -0.08932209 C67.20369109 -0.10404639 72.2607774 -0.10493291 77.3179493 -0.10181236 C79.74485901 -0.1023262 82.17177246 -0.10757558 84.59866142 -0.11762428 C87.99089265 -0.12994617 91.38257326 -0.12322214 94.77479553 -0.11161804 C95.77911621 -0.11926178 96.78343689 -0.12690552 97.81819153 -0.13478088 C103.326409 -0.0930862 107.27656305 0.16065729 111.37660217 4.26069641 C111.75160217 7.57319641 111.75160217 7.57319641 111.37660217 11.26069641 C109.23124519 13.81179827 107.46604877 15.08389876 104.13897514 15.62382317 C101.28225048 15.77619907 98.45192734 15.7894404 95.59120178 15.7624054 C93.96114449 15.77050987 93.96114449 15.77050987 92.29815674 15.77877808 C88.7081423 15.79127967 85.11892747 15.77476496 81.52894592 15.75679016 C79.03460651 15.7569451 76.54026684 15.75843329 74.04592896 15.76119995 C68.15044178 15.76276187 62.25524726 15.74438768 56.35982376 15.71839815 C50.99016373 15.69657669 45.62076555 15.70019872 40.25108331 15.71063751 C34.43593965 15.72142187 28.62093616 15.71512272 22.8058033 15.70108223 C20.33341946 15.69656123 17.86102433 15.69623656 15.38863945 15.70014763 C11.93639194 15.70305251 8.48477583 15.68658705 5.03260803 15.66474915 C4.00756165 15.66925079 2.98251526 15.67375244 1.92640686 15.6783905 C0.51541969 15.66353355 0.51541969 15.66353355 -0.92407227 15.64837646 C-1.73981751 15.64594657 -2.55556276 15.64351667 -3.39602757 15.64101315 C-6.19639066 15.16285962 -7.56810529 14.19738996 -9.62339783 12.26069641 C-10.5530735 9.13964237 -10.89239833 7.1410617 -9.93589783 4.01069641 C-7.3381703 0.5470597 -4.15315283 0.01064409 0 0 Z " fill="#ffffff" transform="translate(63.62339782714844,60.73930358886719)"/>
<path d="M0 0 C1.58375679 -0.0076664 1.58375679 -0.0076664 3.19950867 -0.01548767 C6.6871 -0.02937975 10.17449367 -0.02842736 13.66210938 -0.02612305 C16.08679274 -0.03000976 18.51147543 -0.03434438 20.93615723 -0.03910828 C26.01686816 -0.04656936 31.09750961 -0.04627967 36.17822266 -0.04101562 C42.69184462 -0.0352167 49.20518263 -0.05216304 55.71875763 -0.0753603 C60.7252977 -0.09008379 65.73176914 -0.09097129 70.73832703 -0.08785057 C73.14011702 -0.08836433 75.54191079 -0.09361225 77.94367981 -0.10366249 C81.29988131 -0.11598444 84.65552631 -0.10926062 88.01171875 -0.09765625 C89.50181709 -0.10912186 89.50181709 -0.10912186 91.02201843 -0.12081909 C96.50231848 -0.07888961 100.42706398 0.19586281 104.50585938 4.2746582 C104.88085938 7.5871582 104.88085938 7.5871582 104.50585938 11.2746582 C102.36050239 13.82576006 100.59530597 15.09786055 97.26823235 15.63778496 C94.41150768 15.79016087 91.58118454 15.80340219 88.72045898 15.77636719 C87.09040169 15.78447166 87.09040169 15.78447166 85.42741394 15.79273987 C81.8373995 15.80524146 78.24818468 15.78872675 74.65820312 15.77075195 C72.16386371 15.7709069 69.66952405 15.77239508 67.17518616 15.77516174 C61.27969898 15.77672366 55.38450446 15.75834947 49.48908097 15.73235995 C44.11942093 15.71053849 38.75002275 15.71416051 33.38034052 15.7245993 C27.56519685 15.73538366 21.75019336 15.72908451 15.9350605 15.71504402 C13.46267667 15.71052302 10.99028153 15.71019836 8.51789665 15.71410942 C5.06564914 15.7170143 1.61403304 15.70054884 -1.83813477 15.67871094 C-2.86318115 15.68321259 -3.88822754 15.68771423 -4.94433594 15.69235229 C-6.3553231 15.67749535 -6.3553231 15.67749535 -7.79481506 15.66233826 C-8.61056031 15.65990836 -9.42630556 15.65747847 -10.26677036 15.65497494 C-13.06713345 15.17682141 -14.43884808 14.21135175 -16.49414062 12.2746582 C-17.41618893 9.17921034 -17.73687984 7.14851937 -16.86914062 4.0246582 C-12.88450549 -1.0466956 -5.814547 -0.01450078 0 0 Z " fill="#ffffff" transform="translate(70.494140625,198.725341796875)"/>
<path d="M0 0 C1.58375679 -0.0076664 1.58375679 -0.0076664 3.19950867 -0.01548767 C6.6871 -0.02937975 10.17449367 -0.02842736 13.66210938 -0.02612305 C16.08679274 -0.03000976 18.51147543 -0.03434438 20.93615723 -0.03910828 C26.01686816 -0.04656936 31.09750961 -0.04627967 36.17822266 -0.04101562 C42.69184462 -0.0352167 49.20518263 -0.05216304 55.71875763 -0.0753603 C60.7252977 -0.09008379 65.73176914 -0.09097129 70.73832703 -0.08785057 C73.14011702 -0.08836433 75.54191079 -0.09361225 77.94367981 -0.10366249 C81.29988131 -0.11598444 84.65552631 -0.10926062 88.01171875 -0.09765625 C89.50181709 -0.10912186 89.50181709 -0.10912186 91.02201843 -0.12081909 C96.50231848 -0.07888961 100.42706398 0.19586281 104.50585938 4.2746582 C104.88085938 7.5871582 104.88085938 7.5871582 104.50585938 11.2746582 C102.36050239 13.82576006 100.59530597 15.09786055 97.26823235 15.63778496 C94.41150768 15.79016087 91.58118454 15.80340219 88.72045898 15.77636719 C87.09040169 15.78447166 87.09040169 15.78447166 85.42741394 15.79273987 C81.8373995 15.80524146 78.24818468 15.78872675 74.65820312 15.77075195 C72.16386371 15.7709069 69.66952405 15.77239508 67.17518616 15.77516174 C61.27969898 15.77672366 55.38450446 15.75834947 49.48908097 15.73235995 C44.11942093 15.71053849 38.75002275 15.71416051 33.38034052 15.7245993 C27.56519685 15.73538366 21.75019336 15.72908451 15.9350605 15.71504402 C13.46267667 15.71052302 10.99028153 15.71019836 8.51789665 15.71410942 C5.06564914 15.7170143 1.61403304 15.70054884 -1.83813477 15.67871094 C-2.86318115 15.68321259 -3.88822754 15.68771423 -4.94433594 15.69235229 C-6.3553231 15.67749535 -6.3553231 15.67749535 -7.79481506 15.66233826 C-8.61056031 15.65990836 -9.42630556 15.65747847 -10.26677036 15.65497494 C-13.06713345 15.17682141 -14.43884808 14.21135175 -16.49414062 12.2746582 C-17.41618893 9.17921034 -17.73687984 7.14851937 -16.86914062 4.0246582 C-12.88450549 -1.0466956 -5.814547 -0.01450078 0 0 Z " fill="#ffffff" transform="translate(70.494140625,152.725341796875)"/>
<path d="M0 0 C1.67613876 -0.00832352 1.67613876 -0.00832352 3.38613892 -0.01681519 C7.08395103 -0.02863713 10.78054487 -0.00431001 14.47827148 0.02148438 C17.04369552 0.02319471 19.6091213 0.02313059 22.17454529 0.0213623 C27.55225621 0.02301697 32.92952217 0.04116315 38.30712891 0.07324219 C44.52500986 0.11015331 50.74243063 0.11891511 56.96040684 0.11194468 C62.94269597 0.10564093 68.92478653 0.11660295 74.90705681 0.13591003 C77.45283168 0.14295489 79.99862051 0.14606278 82.54440498 0.1452179 C86.09756984 0.14700978 89.65007395 0.16833981 93.203125 0.1953125 C94.79052238 0.1909166 94.79052238 0.1909166 96.4099884 0.18643188 C97.85894501 0.20345657 97.85894501 0.20345657 99.33717346 0.2208252 C100.5973068 0.22641827 100.5973068 0.22641827 101.88289738 0.23212433 C104.56047958 0.70836572 105.44514444 1.43439193 107.03686523 3.61523438 C107.50503263 7.29369251 107.66033041 9.60668239 105.68225098 12.80653381 C101.47285024 15.68458118 97.25654921 15.16344955 92.27319336 15.11694336 C91.17688095 15.12234634 90.08056854 15.12774933 88.95103455 15.13331604 C85.3231211 15.14583467 81.69599635 15.12929055 78.06811523 15.11132812 C75.54992633 15.11148304 73.03173719 15.11297075 70.5135498 15.11573792 C65.23428709 15.11712332 59.95522924 15.10497313 54.67602539 15.08178711 C48.57518759 15.05517773 42.47473011 15.05343049 36.37385416 15.06517547 C30.5015819 15.07596018 24.62944845 15.0696598 18.75718689 15.05562019 C16.25968323 15.05109856 13.76216839 15.05077508 11.2646637 15.05468559 C7.77638692 15.05759051 4.28873501 15.04112429 0.80053711 15.01928711 C-0.75341515 15.02603958 -0.75341515 15.02603958 -2.33876038 15.03292847 C-3.76453651 15.01807152 -3.76453651 15.01807152 -5.21911621 15.00291443 C-6.04353462 15.00048453 -6.86795303 14.99805464 -7.71735382 14.99555111 C-10.5282287 14.51953729 -11.8959751 13.55300177 -13.96313477 11.61523438 C-14.96313477 8.74023438 -14.96313477 8.74023438 -14.96313477 5.61523438 C-11.69764184 -0.98343598 -6.52033317 -0.08187601 0 0 Z " fill="#ffffff" transform="translate(67.963134765625,245.384765625)"/>
<path d="M0 0 C2.15209961 1.39648438 2.15209961 1.39648438 4 4 C4.61555894 7.36019971 4.58418159 10.68507214 4.56640625 14.09375 C4.57570412 15.56926331 4.57570412 15.56926331 4.58518982 17.07458496 C4.59228747 19.15241507 4.58911495 21.23030205 4.57641602 23.30810547 C4.56254788 26.48901854 4.59662521 29.66699157 4.63476562 32.84765625 C4.6357168 34.86718822 4.6338581 36.88672388 4.62890625 38.90625 C4.64216446 39.85737671 4.65542267 40.80850342 4.66908264 41.78845215 C4.57641536 48.35208056 4.57641536 48.35208056 1.65600586 51.63476562 C-1 53 -1 53 -4.125 52.9375 C-7.10213673 51.96669454 -8.11410114 51.41578462 -10 49 C-10.38768005 46.91308594 -10.38768005 46.91308594 -10.40405273 44.484375 C-10.41673691 43.57333008 -10.42942108 42.66228516 -10.44248962 41.72363281 C-10.43955399 40.74233398 -10.43661835 39.76103516 -10.43359375 38.75 C-10.4388356 37.7403418 -10.44407745 36.73068359 -10.44947815 35.69042969 C-10.45590278 33.5553479 -10.45455567 31.42023074 -10.44604492 29.28515625 C-10.43753221 26.01238233 -10.46629555 22.7413515 -10.49804688 19.46875 C-10.49965883 17.39583386 -10.49908146 15.32291462 -10.49609375 13.25 C-10.50732773 12.26870117 -10.51856171 11.28740234 -10.53013611 10.27636719 C-10.52075516 9.36532227 -10.51137421 8.45427734 -10.50170898 7.515625 C-10.50154282 6.71415039 -10.50137665 5.91267578 -10.50120544 5.08691406 C-10 3 -10 3 -8.15614319 1.24511719 C-5.2032545 -0.46010002 -3.3568079 -0.48953449 0 0 Z " fill="#ffffff" transform="translate(327,117)"/>
<path d="M0 0 C4.30169173 1.40272556 4.30169173 1.40272556 5.875 3.9375 C6.29668789 7.24072178 6.21190996 9.24496287 4.75 12.25 C2.11775308 14.61902223 0.39897438 14.9375 -3.125 14.9375 C-6 13.4375 -6 13.4375 -8.125 10.9375 C-8.75 7.4375 -8.75 7.4375 -8.125 3.9375 C-5.45043116 0.79094842 -4.15592269 -0.08311845 0 0 Z " fill="#ffffff" transform="translate(325.125,180.0625)"/>
<path d="M0 0 C0 4.38968456 -2.12805101 5.76905739 -5 9 C-5.66 8.67 -6.32 8.34 -7 8 C-4.69 5.36 -2.38 2.72 0 0 Z " fill="#ffffff" transform="translate(277,107)"/>
</svg>
